PathFileType	4	(X/Y/Z)	/Users/itak/Documents/Research/Walk-IL/dataset/trc/00309_00010.trc
DataRate	CameraRate	NumFrames	NumMarkers	Units	OrigDataRate	OrigDataStartFrame	OrigNumFrames
100.000000	100.000000	4	53	mm	100.000000	67	542
Frame#	Time	RPSI			LPSI			L3			STRN			T10			C7			CLAV			RBAK			LBAK			LSHO			LUPA			LAEL			LAOL			LWTS			LWPS			LFRA			LIFD			LHPS			LHTS			RSHO			RUPA			RAEL			RAOL			RWTS			RWPS			RFRA			RIFD			RHTS			RHPS			RBHD			LFHD			RFHD			LBHD			LHIP			RHIP			RASI			LASI			LKNE			LTHI			LANK			LTIP			LTOE			LMT1			LMT5			LHEE			RKNE			RTHI			RANK			RTIP			RTOE			RMT1			RMT5			RHEE			
		X1	Y1	Z1	X2	Y2	Z2	X3	Y3	Z3	X4	Y4	Z4	X5	Y5	Z5	X6	Y6	Z6	X7	Y7	Z7	X8	Y8	Z8	X9	Y9	Z9	X10	Y10	Z10	X11	Y11	Z11	X12	Y12	Z12	X13	Y13	Z13	X14	Y14	Z14	X15	Y15	Z15	X16	Y16	Z16	X17	Y17	Z17	X18	Y18	Z18	X19	Y19	Z19	X20	Y20	Z20	X21	Y21	Z21	X22	Y22	Z22	X23	Y23	Z23	X24	Y24	Z24	X25	Y25	Z25	X26	Y26	Z26	X27	Y27	Z27	X28	Y28	Z28	X29	Y29	Z29	X30	Y30	Z30	X31	Y31	Z31	X32	Y32	Z32	X33	Y33	Z33	X34	Y34	Z34	X35	Y35	Z35	X36	Y36	Z36	X37	Y37	Z37	X38	Y38	Z38	X39	Y39	Z39	X40	Y40	Z40	X41	Y41	Z41	X42	Y42	Z42	X43	Y43	Z43	X44	Y44	Z44	X45	Y45	Z45	X46	Y46	Z46	X47	Y47	Z47	X48	Y48	Z48	X49	Y49	Z49	X50	Y50	Z50	X51	Y51	Z51	X52	Y52	Z52	X53	Y53	Z53	

68	0.67	-1186.39990234375	1016.619873046875	-582.9017944335938	-1185.582885742188	1007.820556640625	-757.743896484375	-1167.422729492188	1074.741577148438	-671.8704833984375	-917.146484375	1246.7490234375	-684.8602905273438	-1180.145263671875	1187.11474609375	-672.4664306640625	-1133.537841796875	1432.496459960938	-693.0538330078125	-978.11669921875	1349.123168945312	-689.2872314453125	-1184.390014648438	1296.508422851562	-613.2053833007812	-1152.525634765625	1394.235473632812	-796.620361328125	-1063.815063476562	1400.746337890625	-852.1517944335938	-1091.48388671875	1281.380126953125	-922.5164794921875	-1078.068603515625	1077.528442382812	-934.6567993164062	-1135.409301757812	1063.274780273438	-870.58544921875	-988.4556884765625	859.1168212890625	-885.3484497070312	-1024.848510742188	845.1578369140625	-947.1641845703125	-1060.510620117188	973.6569213867188	-942.3834838867188	-978.807861328125	674.0509033203125	-885.9322509765625	-1015.338623046875	756.7855224609375	-943.7645874023438	-961.778564453125	761.9668579101562	-904.7709350585938	-1062.886596679688	1411.232543945312	-535.8480224609375	-1068.224853515625	1352.799560546875	-468.977783203125	-1071.202514648438	1087.091186523438	-413.8663024902344	-1109.010986328125	1077.5654296875	-501.2676086425781	-966.0640258789062	867.1277465820312	-467.0929260253906	-1004.904113769531	861.9224243164062	-392.0321044921875	-1044.702026367188	1020.800659179688	-402.0150756835938	-952.1761474609375	681.6827392578125	-465.0609741210938	-931.2705688476562	753.0714721679688	-449.1597290039062	-977.0275268554688	751.5294189453125	-393.5539245605469	-1095.513916015625	1588.16650390625	-608.8063354492188	-931.1803588867188	1632.393432617188	-736.6483154296875	-926.0974731445312	1623.113891601562	-644.4398193359375	-1102.326538085938	1592.647094726562	-754.7335815429688	-1119.5947265625	955.4560546875	-853.5723876953125	-1088.160522460938	958.1509399414062	-480.945556640625	-969.8525390625	953.8202514648438	-551.2211303710938	-981.3485107421875	954.0935668945312	-803.0123291015625	-1089.614379882812	486.6633911132812	-821.9486694335938	-1084.66259765625	628.630126953125	-843.4986572265625	-1185.428833007812	50.24189376831055	-806.4055786132812	-1144.993896484375	265.1222839355469	-823.9569091796875	-980.5552978515625	37.93698883056641	-740.1304321289062	-1052.401000976562	31.6489372253418	-703.2579345703125	-1061.376831054688	44.77542495727539	-814.9208374023438	-1234.05029296875	46.35299682617188	-747.8504638671875	-1099.802490234375	483.0054931640625	-516.2523803710938	-1042.857055664062	743.2952880859375	-488.7140808105469	-1195.27197265625	47.67402648925781	-543.8092041015625	-1102.8896484375	361.2201843261719	-529.1736450195312	-998.781982421875	44.32495880126953	-586.9756469726562	-1054.702026367188	40.12491607666016	-630.0568237304688	-1091.6728515625	37.79953002929688	-517.847412109375	-1246.453735351562	41.43455505371094	-593.6824340820312	
69	0.68	-1186.169677734375	1016.604125976562	-583.1438598632812	-1185.225463867188	1007.784301757812	-757.9579467773438	-1167.124877929688	1074.732543945312	-672.1600952148438	-916.8081665039062	1246.677368164062	-685.0540161132812	-1179.903564453125	1187.154907226562	-672.873779296875	-1133.164794921875	1432.5087890625	-693.5230712890625	-977.6917114257812	1349.047241210938	-689.53173828125	-1184.128784179688	1296.540771484375	-613.6764526367188	-1151.999389648438	1394.21240234375	-797.08154296875	-1063.279541015625	1400.645751953125	-852.5196533203125	-1090.846435546875	1281.271606445312	-922.8707885742188	-1077.374267578125	1077.453247070312	-934.9887084960938	-1134.848388671875	1063.182495117188	-871.042724609375	-987.6221313476562	859.1542358398438	-885.4967651367188	-1023.9423828125	845.1292114257812	-947.3828735351562	-1059.754516601562	973.557861328125	-942.6752319335938	-977.7611083984375	674.07275390625	-886.113037109375	-1014.332214355469	756.7638549804688	-943.9791259765625	-960.780517578125	761.9727172851562	-904.848388671875	-1062.701171875	1411.247436523438	-536.2200317382812	-1068.191162109375	1352.8447265625	-469.3494567871094	-1071.472412109375	1087.149291992188	-414.130615234375	-1109.073974609375	1077.656372070312	-501.5798645019531	-966.296875	867.165283203125	-467.0472717285156	-1005.290832519531	862.000244140625	-392.0251159667969	-1044.978637695312	1020.865905761719	-402.1420288085938	-952.5840454101562	681.7991333007812	-464.9044494628906	-931.6066284179688	753.1062622070312	-448.993408203125	-977.4569702148438	751.5860595703125	-393.4837341308594	-1095.359741210938	1588.575561523438	-609.8533935546875	-930.0670776367188	1631.869018554688	-736.8387451171875	-925.6015014648438	1622.818115234375	-644.5830688476562	-1101.272827148438	1592.65576171875	-755.825927734375	-1119.239013671875	955.3988037109375	-853.7861938476562	-1087.858154296875	958.1231079101562	-481.1532897949219	-969.615234375	953.7531127929688	-551.448486328125	-981.106689453125	953.9826049804688	-803.2010498046875	-1089.41748046875	486.6245727539062	-822.0526733398438	-1084.46435546875	628.59375	-843.6342163085938	-1185.424560546875	50.25022506713867	-806.394287109375	-1144.889404296875	265.1023559570312	-824.0042114257812	-980.5475463867188	37.92812347412109	-740.1294555664062	-1052.41552734375	31.66327857971191	-703.242919921875	-1061.369995117188	44.7723388671875	-814.9066772460938	-1234.014892578125	46.34989929199219	-747.8424072265625	-1099.624755859375	482.9974670410156	-516.3713989257812	-1042.699951171875	743.3009643554688	-488.883056640625	-1195.255981445312	47.69678497314453	-543.8274536132812	-1102.745849609375	361.2630004882812	-529.2818603515625	-998.7870483398438	44.324951171875	-586.9737548828125	-1054.704223632812	40.11736679077148	-630.0634765625	-1091.671264648438	37.80602645874023	-517.8471069335938	-1246.443359375	41.43925476074219	-593.6973876953125	
70	0.6900000000000001	-1185.947265625	1016.588623046875	-583.3916015625	-1184.89208984375	1007.742980957031	-758.1871337890625	-1166.834106445312	1074.726318359375	-672.4625244140625	-916.5113525390625	1246.5986328125	-685.2567749023438	-1179.668334960938	1187.194580078125	-673.2939453125	-1132.797241210938	1432.521606445312	-693.9915161132812	-977.2724609375	1348.963134765625	-689.7660522460938	-1183.8955078125	1296.570434570312	-614.156494140625	-1151.477783203125	1394.197021484375	-797.5469360351562	-1062.743530273438	1400.558227539062	-852.8912353515625	-1090.225708007812	1281.184692382812	-923.2379150390625	-1076.686157226562	1077.392822265625	-935.3298950195312	-1134.297241210938	1063.10986328125	-871.5134887695312	-986.8364868164062	859.1898193359375	-885.6497802734375	-1023.070678710938	845.110107421875	-947.6170043945312	-1059.005737304688	973.4788208007812	-942.977294921875	-976.7454833984375	674.093505859375	-886.2970581054688	-1013.388854980469	756.7500610351562	-944.2122192382812	-959.8211059570312	761.9819946289062	-904.9306640625	-1062.5380859375	1411.253784179688	-536.5936279296875	-1068.1787109375	1352.87646484375	-469.7245483398438	-1071.748291015625	1087.185913085938	-414.4261779785156	-1109.14453125	1077.735961914062	-501.8988952636719	-966.542236328125	867.1934814453125	-467.0271301269531	-1005.665466308594	862.0588989257812	-392.0542602539062	-1045.262817382812	1020.917846679688	-402.2922973632812	-953.0536499023438	681.8751220703125	-464.7732543945312	-931.948974609375	753.1261596679688	-448.9068298339844	-977.9041748046875	751.632080078125	-393.4727478027344	-1095.201538085938	1588.97021484375	-610.8624877929688	-929.0059814453125	1631.347778320312	-737.0401000976562	-925.1128540039062	1622.5009765625	-644.7479858398438	-1100.281372070312	1592.678100585938	-756.8690795898438	-1118.902709960938	955.3383178710938	-854.0076293945312	-1087.585693359375	958.1004028320312	-481.3585510253906	-969.3200073242188	953.7155151367188	-551.6920776367188	-980.8699951171875	953.8718872070312	-803.3931884765625	-1089.199829101562	486.5706481933594	-822.1454467773438	-1084.25830078125	628.5532836914062	-843.7590942382812	-1185.42041015625	50.2563591003418	-806.3816528320312	-1144.782104492188	265.0809020996094	-824.0508422851562	-980.5421752929688	37.91988372802734	-740.1265869140625	-1052.43701171875	31.697021484375	-703.2164306640625	-1061.361328125	44.76951217651367	-814.8904418945312	-1234.000732421875	46.34724426269531	-747.8365478515625	-1099.471801757812	482.9840698242188	-516.4917602539062	-1042.630859375	743.2921752929688	-488.974365234375	-1195.242919921875	47.71498870849609	-543.8466186523438	-1102.628784179688	361.2955627441406	-529.3884887695312	-998.790283203125	44.32569122314453	-586.9727172851562	-1054.708984375	40.10940170288086	-630.0697021484375	-1091.670166015625	37.81173324584961	-517.8468017578125	-1246.429931640625	41.43671798706055	-593.7125244140625	
71	0.7000000000000001	-1185.71923828125	1016.573669433594	-583.6453857421875	-1184.584350585938	1007.699829101562	-758.43310546875	-1166.548583984375	1074.721923828125	-672.7791748046875	-916.2628173828125	1246.51513671875	-685.4664306640625	-1179.432495117188	1187.23095703125	-673.7261962890625	-1132.4365234375	1432.53369140625	-694.4599609375	-976.8675537109375	1348.87548828125	-689.9911499023438	-1183.691284179688	1296.596069335938	-614.6470947265625	-1150.96728515625	1394.186767578125	-798.0169677734375	-1062.212280273438	1400.484497070312	-853.2676391601562	-1089.628295898438	1281.117309570312	-923.6193237304688	-1076.01416015625	1077.345458984375	-935.6830444335938	-1133.751953125	1063.0537109375	-871.9957275390625	-986.1008911132812	859.221435546875	-885.8097534179688	-1022.218566894531	845.0968017578125	-947.865478515625	-1058.267944335938	973.4210205078125	-943.2907104492188	-975.7789306640625	674.1117553710938	-886.4814453125	-1012.499328613281	756.7440185546875	-944.4629516601562	-958.9234619140625	762.0103149414062	-905.0121459960938	-1062.401977539062	1411.252319335938	-536.971435546875	-1068.18896484375	1352.89453125	-470.104736328125	-1072.023193359375	1087.202880859375	-414.753662109375	-1109.22021484375	1077.80224609375	-502.2272033691406	-966.797607421875	867.2064208984375	-467.0327453613281	-1006.031372070312	862.0972290039062	-392.1229553222656	-1045.557739257812	1020.958374023438	-402.47119140625	-953.5537719726562	681.9044799804688	-464.6723022460938	-932.2984008789062	753.1228637695312	-448.8925170898438	-978.3648681640625	751.666015625	-393.513427734375	-1095.02978515625	1589.349609375	-611.8275146484375	-927.9894409179688	1630.828857421875	-737.2498168945312	-924.630126953125	1622.159301757812	-644.92333984375	-1099.339477539062	1592.713256835938	-757.8616333007812	-1118.589233398438	955.2781372070312	-854.2362670898438	-1087.338256835938	958.0843505859375	-481.5644836425781	-968.9679565429688	953.7117309570312	-551.951904296875	-980.6422729492188	953.7614135742188	-803.5916748046875	-1088.966552734375	486.5028686523438	-822.2298583984375	-1084.051635742188	628.5099487304688	-843.8770141601562	-1185.417114257812	50.2600212097168	-806.3682861328125	-1144.676147460938	265.057373046875	-824.0964965820312	-980.5394897460938	37.91203308105469	-740.1212158203125	-1052.46337890625	31.74688148498535	-703.18115234375	-1061.34716796875	44.76543045043945	-814.872314453125	-1234.0078125	46.34523010253906	-747.8331298828125	-1099.344360351562	482.9676208496094	-516.6143188476562	-1042.626098632812	743.2697143554688	-489.0119018554688	-1195.233276367188	47.7288932800293	-543.8665161132812	-1102.538696289062	361.3175354003906	-529.491943359375	-998.791015625	44.32529067993164	-586.972412109375	-1054.715087890625	40.10177230834961	-630.075439453125	-1091.669555664062	37.81636810302734	-517.846435546875	-1246.41455078125	41.42762756347656	-593.7279052734375	
